<svg xmlns="http://www.w3.org/2000/svg" width="759.014" height="558.161" viewBox="0 0 759.014 558.161">
  <g id="Group_635" data-name="Group 635" transform="matrix(0.848, 0.53, -0.53, 0.848, 102.413, 0)">
    <g id="Group_490" data-name="Group 490" transform="translate(0 0)">
      <path id="Path_1103" data-name="Path 1103" d="M697.9,157.979c-36.458-35.755-86.443-56.888-137.46-58.542-50.39-1.634-97.626,17.693-142.421,38.681-45.044,21.1-90.305,45.424-140.187,52.535a184.18,184.18,0,0,1-78.539-5.723c-26.233-7.779-50.7-20.9-72.724-37.026C79.517,113.457,44.8,65.5,12.446,17.713Q6.511,8.948.626.15C.391-.2-.181.129.057.483,32,48.107,64.533,96.718,108.424,134.341c39.858,34.165,89.942,59.169,143.363,58.918,49.313-.232,95.336-20.834,139.076-41.545C436.6,130.061,483.2,106.145,534.3,100.978,587.273,95.62,642,112.319,683.319,145.825q7.358,5.967,14.11,12.62c.3.3.77-.169.466-.466" transform="translate(0 0)" fill="#f3806e"/>
      <path id="Path_1104" data-name="Path 1104" d="M590.611,145.828c-46.365,14.931-92.378-12.861-127.975-39.972-18.53-14.113-36.482-29.114-56.378-41.319-20.005-12.272-41.919-20.887-65.185-24.37A170.922,170.922,0,0,0,270.946,44.1c-23.284,6.35-44.414,18.245-64.843,30.8-39.439,24.242-85.12,55.678-133.956,43.237A90.056,90.056,0,0,1,21.293,83.374,89.6,89.6,0,0,1,6.128,19.457,89.977,89.977,0,0,1,10.09,3.219C11.191,0,6.1-1.384,5,1.816A95.351,95.351,0,0,0,7.227,68.7a93.7,93.7,0,0,0,42.362,46.29c20.19,10.788,43.089,13.239,65.446,9.048,24.638-4.618,47.337-16.291,68.632-29.1,21.055-12.661,41.448-26.645,63.909-36.78a164.109,164.109,0,0,1,142.178,3.135c21.453,10.975,40.424,26.02,59.367,40.749,35.738,27.788,78.188,58.329,126.158,52.525a89.517,89.517,0,0,0,16.734-3.65c3.219-1.037,1.843-6.133-1.4-5.088" transform="translate(188.981 13.724)" fill="#665cd7"/>
    </g>
  </g>
</svg>
