<svg xmlns="http://www.w3.org/2000/svg" width="759.014" height="558.16" viewBox="0 0 759.014 558.16">
  <g id="Group_634" data-name="Group 634" transform="matrix(-0.848, 0.53, -0.53, -0.848, 759.015, 163.895)">
    <g id="Group_490" data-name="Group 490" transform="translate(0 0)">
      <path id="Path_1103" data-name="Path 1103" d="M697.9,35.282c-36.458,35.755-86.443,56.888-137.46,58.542-50.39,1.634-97.626-17.693-142.421-38.681C372.97,34.04,327.709,9.72,277.828,2.609a184.18,184.18,0,0,0-78.539,5.723c-26.233,7.779-50.7,20.9-72.724,37.026C79.517,79.8,44.8,127.764,12.446,175.548Q6.511,184.314.626,193.112c-.235.351-.807.021-.569-.333C32,145.155,64.533,96.543,108.424,58.92,148.282,24.755,198.366-.249,251.787,0,301.1.234,347.124,20.836,390.864,41.547,436.6,63.2,483.2,87.117,534.3,92.284,587.273,97.642,642,80.943,683.319,47.436q7.358-5.967,14.11-12.62c.3-.3.77.169.466.466" transform="translate(0 0)" fill="#f3806e"/>
      <path id="Path_1104" data-name="Path 1104" d="M590.611,9.455C544.246-5.476,498.232,22.316,462.636,49.427c-18.53,14.113-36.482,29.114-56.378,41.319-20.005,12.272-41.919,20.887-65.185,24.37a170.922,170.922,0,0,1-70.127-3.937c-23.284-6.35-44.414-18.245-64.843-30.8C166.664,56.134,120.983,24.7,72.147,37.139A90.056,90.056,0,0,0,21.293,71.908a88.958,88.958,0,0,0-11.2,80.155c1.1,3.22-3.994,4.6-5.088,1.4a95.351,95.351,0,0,1,2.225-66.88A93.7,93.7,0,0,1,49.59,40.3c20.19-10.788,43.089-13.239,65.446-9.048,24.638,4.618,47.337,16.291,68.632,29.1,21.055,12.661,41.448,26.645,63.909,36.78a164.876,164.876,0,0,0,71.629,14.629,163.406,163.406,0,0,0,70.549-17.764c21.453-10.975,40.424-26.02,59.367-40.749C484.859,25.454,527.309-5.087,575.279.717a89.517,89.517,0,0,1,16.734,3.65c3.219,1.037,1.843,6.133-1.4,5.088" transform="translate(188.981 24.255)" fill="#665cd7"/>
    </g>
  </g>
</svg>
