<svg xmlns="http://www.w3.org/2000/svg" width="28" height="28" viewBox="0 0 28 28">
  <path id="icons8-cool" d="M18,4A14,14,0,1,0,32,18,14.016,14.016,0,0,0,18,4Zm0,2.1A11.9,11.9,0,1,1,6.1,18,11.884,11.884,0,0,1,18,6.1Zm-7.645,7.7a1.4,1.4,0,0,0-1.386,1.6l.3,2.1a1.4,1.4,0,0,0,1.386,1.2h3.89a1.4,1.4,0,0,0,1.345-1.016l.6-2.1A1.4,1.4,0,0,0,15.145,13.8Zm10.5,0a1.4,1.4,0,0,0-1.345,1.784l.6,2.1A1.4,1.4,0,0,0,21.455,18.7h3.89a1.4,1.4,0,0,0,1.386-1.2l.3-2.1a1.4,1.4,0,0,0-1.386-1.6Zm2.871,7.689a1.05,1.05,0,0,0-.783.412A6.261,6.261,0,0,1,18,24.3a8.016,8.016,0,0,1-3.974-1.228,1.05,1.05,0,1,0-1.151,1.755A9.667,9.667,0,0,0,18,26.4a8.379,8.379,0,0,0,6.593-3.2,1.05,1.05,0,0,0-.867-1.71Z" transform="translate(-4 -4)" fill="#43434BB7"/>
</svg>
