<svg xmlns="http://www.w3.org/2000/svg" width="28" height="28" viewBox="0 0 28 28">
  <path id="icons8-happy" d="M18,4A14,14,0,1,0,32,18,14.016,14.016,0,0,0,18,4Zm0,2.1A11.9,11.9,0,1,1,6.1,18,11.884,11.884,0,0,1,18,6.1Zm-4.2,6.65a1.75,1.75,0,1,0,1.75,1.75A1.75,1.75,0,0,0,13.8,12.75Zm8.4,0a1.75,1.75,0,1,0,1.75,1.75A1.75,1.75,0,0,0,22.2,12.75Zm-9.959,8.039a1.05,1.05,0,0,0-.834,1.71,8.39,8.39,0,0,0,13.185,0,1.05,1.05,0,1,0-1.65-1.3,6.29,6.29,0,0,1-9.885,0,1.05,1.05,0,0,0-.816-.412Z" transform="translate(-4 -4)" fill="#43434BB7"/>
</svg>
