<svg xmlns="http://www.w3.org/2000/svg" width="28" height="28" viewBox="0 0 28 28">
  <path id="icons8-wink" d="M18,4A14,14,0,1,0,32,18,14.016,14.016,0,0,0,18,4Zm0,2.1A11.9,11.9,0,1,1,6.1,18,11.884,11.884,0,0,1,18,6.1Zm-4.2,6.65a1.75,1.75,0,1,0,1.75,1.75A1.75,1.75,0,0,0,13.8,12.75Zm7.35,1.05a1.05,1.05,0,1,0,0,2.1h2.8a1.05,1.05,0,1,0,0-2.1Zm3.526,4.886a1.05,1.05,0,0,0-1.017.718A6.179,6.179,0,0,1,19.824,23.3h0a6.268,6.268,0,0,1-2.155.343,1.05,1.05,0,1,0-.036,2.1A8.288,8.288,0,0,0,25.641,20.1a1.05,1.05,0,0,0-.965-1.41Z" transform="translate(-4 -4)" fill="#43434BB7"/>
</svg>
